<?xml version="1.0" encoding="utf-8"?>
<!-- Svg Vector Icons : http://www.onlinewebfonts.com/icon -->
<!DOCTYPE svg PUBLIC "-//W3C//DTD SVG 1.1//EN" "http://www.w3.org/Graphics/SVG/1.1/DTD/svg11.dtd">
<svg version="1.1" xmlns="http://www.w3.org/2000/svg" xmlns:xlink="http://www.w3.org/1999/xlink" x="0px" y="0px" viewBox="0 0 1000 1000" enable-background="new 0 0 1000 1000" xml:space="preserve">
<metadata> Svg Vector Icons : http://www.onlinewebfonts.com/icon </metadata>
<g><path d="M794,108H622.5V83.5c0-40.5-33-73.5-73.5-73.5h-98c-40.5,0-73.5,33-73.5,73.5V108H206c-40.5,0-73.5,33-73.5,73.5v49c0,32,20.5,59.2,49,69.3v616.7c0,40.5,33,73.5,73.5,73.5h490c40.5,0,73.5-33,73.5-73.5V299.8c28.5-10.1,49-37.3,49-69.3v-49C867.5,141,834.5,108,794,108z M426.5,83.5c0-13.5,11-24.5,24.5-24.5h98c13.5,0,24.5,11,24.5,24.5V108h-147V83.5z M745,941H255c-13.5,0-24.5-11-24.5-24.5V304h539v612.5C769.5,930,758.5,941,745,941z M818.5,230.5c0,13.5-11,24.5-24.5,24.5H206c-13.5,0-24.5-11-24.5-24.5v-49c0-13.5,11-24.5,24.5-24.5h588c13.5,0,24.5,11,24.5,24.5V230.5z"/><path d="M647,353c-13.5,0-24.5,11-24.5,24.5v490c0,13.5,11,24.5,24.5,24.5c13.5,0,24.5-11,24.5-24.5v-490C671.5,364,660.5,353,647,353z"/><path d="M500,353c-13.5,0-24.5,11-24.5,24.5v490c0,13.5,11,24.5,24.5,24.5c13.5,0,24.5-11,24.5-24.5v-490C524.5,364,513.5,353,500,353z"/><path d="M353,353c-13.5,0-24.5,11-24.5,24.5v490c0,13.5,11,24.5,24.5,24.5c13.5,0,24.5-11,24.5-24.5v-490C377.5,364,366.5,353,353,353z"/></g>
</svg>